<svg fill="none" height="31" viewBox="0 0 103 31" width="103" xmlns="http://www.w3.org/2000/svg" xmlns:xlink="http://www.w3.org/1999/xlink"><clipPath id="a"><path d="m.091614.802124h102v30h-102z"/></clipPath><g clip-path="url(#a)"><path d="m11.1384 5.61572v8.20158h-7.49218v-8.20158h-3.5546062v19.57838h3.5555662v-7.9355h7.49022v7.9355h3.5566v-19.57838zm14.9363 13.25028c0 .7848-.31 1.5374-.8618 2.0923-.5517.5549-1.3001.8666-2.0804.8666s-1.5286-.3117-2.0803-.8666c-.5518-.5549-.8618-1.3075-.8618-2.0923v-8.3864h-3.3727v8.3864c0 1.6827.6646 3.2965 1.8477 4.4863s2.7877 1.8583 4.4609 1.8583c1.6731 0 3.2778-.6685 4.4608-1.8583 1.1831-1.1898 1.8478-2.8036 1.8478-4.4863v-8.3864h-3.3602zm24.9909-7.5222c0-1.71969 1.1307-2.26453 2.3691-2.26453.9989 0 2.3172.76452 3.1803 1.69163l2.2084-2.61873c-1.1027-1.5-3.339-2.53645-5.1702-2.53645-3.6595 0-6.3058 2.15516-6.3058 5.72808 0 6.629 8.0561 4.5251 8.0561 8.2355 0 1.1438-1.1047 2.1542-2.3691 2.1542-1.9947 0-2.6414-.9804-3.5575-2.0178l-2.4518 2.5636c1.5685 1.9355 3.5026 2.9187 5.8188 2.9187 3.4767 0 6.273-2.1813 6.273-5.5916 0-7.3587-8.057-5.072-8.057-8.2626m49.8451 10.7226c-1.9927 0-2.5595-.8671-2.5595-2.1949v-5.879h3.0985v-2.9787h-3.0985v-3.93001l-3.4199 1.54355v11.97486c0 3.0629 2.1016 4.6064 4.9826 4.6064.4528.0078.9048-.029 1.3488-.1084l.835-3.089c-.377.0261-.809.0523-1.187.0523m-61.9918-11.4862c-1.6705 0-2.8368.4878-3.9645 1.5997v-6.44418h-3.3776v11.94488c0 4.4709 3.214 7.5348 6.8263 7.5348 4.0069 0 7.5317-3.1181 7.5317-7.3161 0-4.1458-3.2438-7.3162-7.0159-7.3162m-.0212 11.2133c-.5034 0-1.0018-.0997-1.4669-.2935-.465-.1937-.8876-.4777-1.2435-.8356-.356-.358-.6383-.783-.831-1.2507-.1926-.4677-.2917-.969-.2917-1.4752 0-.5063.0991-1.0076.2917-1.4753.1927-.4677.475-.8927.831-1.2506.3559-.358.7785-.642 1.2435-.8357.4651-.1937.9635-.2934 1.4669-.2934 1.0167 0 1.9916.4061 2.7105 1.1291.7189.7229 1.1227 1.7035 1.1227 2.7259s-.4038 2.0029-1.1227 2.7259c-.7189.7229-1.6938 1.1291-2.7105 1.1291zm36.7027-4.0752c0-4.2058-3.5171-7.3161-7.5316-7.3161-3.6114 0-6.8263 3.0629-6.8263 7.5348v11.9516h3.3775v-6.4529c1.1259 1.11 2.294 1.5997 3.9626 1.5997 3.7721 0 7.0178-3.1703 7.0178-7.3171zm-3.1986-.0426c0 1.0224-.4038 2.003-1.1227 2.7259-.7188.723-1.6938 1.1291-2.7104 1.1291-1.0167 0-1.9916-.4061-2.7105-1.1291-.7189-.7229-1.1227-1.7035-1.1227-2.7259s.4038-2.0029 1.1227-2.7259c.7189-.7229 1.6938-1.1291 2.7105-1.1291 1.0166 0 1.9916.4062 2.7104 1.1291.7189.723 1.1227 1.7035 1.1227 2.7259z" fill="#33475b"/><path d="m86.5087 10.2377v-3.41321c.4485-.21081.8282-.54538 1.095-.96479.2668-.4194.4096-.90638.4119-1.40425v-.07838c0-1.45162-1.1701-2.62839-2.6135-2.62839h-.0779c-.6932 0-1.3579.27692-1.8481.76984-.4901.49291-.7654 1.16145-.7654 1.85855v.07838c.0022.49787.1451.98485.4119 1.40425.2667.41941.6465.75398 1.095.96479v3.41321c-1.289.1985-2.503.736-3.519 1.5581l-9.308-7.29099c.0664-.24097.101-.48871.1049-.73742.0011-.58577-.1705-1.15872-.4932-1.64638s-.7819-.86812-1.3196-1.09326c-.5378-.225136-1.1298-.284834-1.7012-.171542-.5715.113292-1.0967.394482-1.5092.808012-.4126.41352-.6939.9408-.8084 1.51514-.1145.57433-.0571 1.16992.165 1.71143s.5989 1.00461 1.0827 1.33073c.4839.32611 1.053.50059 1.6355.50135.5096-.00241 1.0096-.13922 1.4501-.39677l9.1656 7.1729c-.8234 1.251-1.2529 2.7224-1.2327 4.2224.0203 1.5001.4894 2.9593 1.3462 4.1873l-2.7876 2.8045c-.2254-.0725-.4602-.111-.6967-.1142-.4781.0004-.9454.1433-1.3428.4107-.3973.2673-.707.6472-.8898 1.0915s-.2305.9331-.1371 1.4047c.0934.4715.3236.9047.6617 1.2447s.7688.5715 1.2377.6654.9549.0459 1.3967-.1379.8195-.4952 1.0853-.8948c.2659-.3997.408-.8696.4084-1.3504-.0031-.2379-.0414-.4741-.1136-.7007l2.7579-2.7745c.8993.6963 1.9452 1.1763 3.0574 1.4033 1.1123.2271 2.2615.195 3.3596-.0937 1.098-.2886 2.1158-.8262 2.9754-1.5716.8595-.7453 1.5381-1.6786 1.9835-2.7285.4455-1.0498.6462-2.1882.5866-3.328-.0596-1.1399-.3778-2.2509-.9303-3.2479-.5524-.9971-1.3245-1.8538-2.257-2.5044-.9326-.6506-2.0008-1.0779-3.1229-1.2492zm-1.1432 11.2258c-.5096.0141-1.017-.0747-1.4919-.2611-.475-.1864-.9081-.4667-1.2735-.8242-.3655-.3576-.656-.7852-.8543-1.2576-.1984-.4724-.3006-.98-.3006-1.4927 0-.5128.1022-1.0204.3006-1.4928.1983-.4723.4888-.9.8543-1.2575.3654-.3576.7985-.6379 1.2735-.8243.4749-.1864.9823-.2752 1.4919-.2611.9879.0348 1.9238.4538 2.6105 1.1687.6868.715 1.0709 1.6701 1.0714 2.6641.0005.9941-.3826 1.9496-1.0687 2.6652-.6861.7157-1.6215 1.1356-2.6093 1.1714" fill="#ff7a59"/></g></svg>