<svg fill="none" height="50" viewBox="0 0 73 50" width="73" xmlns="http://www.w3.org/2000/svg" xmlns:xlink="http://www.w3.org/1999/xlink"><clipPath id="a"><path d="m.908386 0h71.1832v49.8022h-71.1832z"/></clipPath><mask id="b" height="50" maskUnits="userSpaceOnUse" width="72" x="0" y="0"><path d="m.92403.130371h70.94957v49.656129h-70.94957z" fill="#fff"/></mask><g clip-path="url(#a)"><g mask="url(#b)"><path clip-rule="evenodd" d="m30.4398 5.54786c2.2885-2.38425 5.4751-3.86371 8.999-3.86371 4.6843 0 8.7717 2.61213 10.9477 6.49045 1.9469-.86996 4.0558-1.31834 6.1882-1.31572 8.4492 0 15.2989 6.90942 15.2989 15.43322 0 8.5237-6.8497 15.4334-15.2989 15.4334-1.0318 0-2.0393-.1037-3.0139-.3003-1.9162 3.4181-5.5693 5.728-9.761 5.728-1.6955.0023-3.369-.3828-4.8929-1.1262-1.9425 4.5706-6.4701 7.7752-11.7452 7.7752-5.4947 0-10.1776-3.4763-11.9739-8.3517-.8006.169-1.6166.2539-2.4348.2535-6.54186 0-11.844614-5.3583-11.844614-11.9679 0-4.4301 2.382164-8.2977 5.922814-10.3667-.75016-1.7274-1.13619-3.5908-1.13398-5.4741 0-7.60197 6.17108-13.764929 13.78318-13.764929 4.4692 0 8.4411 2.124549 10.9594 5.417489z" fill="#00a1e0" fill-rule="evenodd"/></g><g clip-rule="evenodd" fill="#fffffe" fill-rule="evenodd"><path d="m11.1869 25.889c-.0446.1163.0159.1406.0303.1612.1332.0964.2685.1663.4052.2448.7235.383 1.4075.4954 2.1219.4954 1.4557 0 2.36-.7739 2.36-2.0202v-.0246c0-1.1524-1.0208-1.5712-1.9775-1.8734l-.1249-.0404c-.7215-.2342-1.3441-.4368-1.3441-.9121v-.0242c0-.4071.364-.7061.928-.7061.6271 0 1.3702.2083 1.8494.4729 0 0 .1414.0913.1927-.0451.0279-.0738.2702-.7261.296-.7968.0276-.0764-.0209-.134-.0707-.1637-.5473-.3335-1.3032-.5604-2.0857-.5604l-.1452.0005c-1.3324 0-2.2628.8057-2.2628 1.9587v.0248c0 1.2151 1.0263 1.6101 1.9877 1.8847l.1544.048c.7001.2148 1.3047.4005 1.3047.893v.0245c0 .4511-.3929.7862-1.0257.7862-.2454 0-1.0287-.0042-1.8751-.5395-.1024-.0597-.1608-.1028-.2398-.151-.0418-.0253-.1461-.0709-.1914.0657zm21.3107 0c-.0446.1163.0159.1406.0307.1612.1328.0964.2683.1663.4047.2448.7238.383 1.4078.4954 2.1219.4954 1.4558 0 2.3603-.7739 2.3603-2.0202v-.0246c0-1.1524-1.0205-1.5712-1.9775-1.8734l-.1249-.0404c-.7215-.2342-1.3444-.4368-1.3444-.9121v-.0242c0-.4071.3643-.7061.9285-.7061.6269 0 1.3697.2083 1.849.4729 0 0 .1413.0913.1929-.0451.0277-.0738.2702-.7261.2957-.7968.0279-.0764-.0208-.134-.0704-.1637-.5476-.3335-1.3032-.5604-2.0857-.5604l-.1455.0005c-1.3321 0-2.2625.8057-2.2625 1.9587v.0248c0 1.2151 1.0261 1.6101 1.9877 1.8847l.1541.048c.7004.2148 1.305.4005 1.305.893v.0245c0 .4511-.3932.7862-1.0255.7862-.2459 0-1.0291-.0042-1.8753-.5395-.1024-.0597-.1624-.1009-.2401-.151-.0263-.0167-.1492-.0647-.1911.0657zm14.5482-2.4416c0 .704-.1314 1.2599-.3895 1.6518-.2566.3885-.6438.5776-1.1838.5776s-.9252-.1888-1.1776-.5771c-.2547-.3921-.384-.9483-.384-1.6523 0-.7035.1293-1.2576.384-1.6456.2524-.3846.6376-.5712 1.1776-.5712s.9272.1869 1.1838.5715c.2586.3877.3895.9418.3895 1.6453zm1.2156-1.3055c-.1197-.4039-.3056-.7593-.553-1.0558-.248-.2972-.5617-.5364-.9335-.7095-.3713-.1734-.8094-.2613-1.3024-.2613-.4931 0-.9314.0879-1.303.2613-.3713.1731-.6852.4123-.9332.71-.2472.297-.4336.6519-.5528 1.0553-.1186.4007-.1788.8401-.1788 1.3055 0 .4657.0602.9053.1788 1.3055.1192.4032.3051.7583.5531 1.0558.248.2978.5627.5348.9335.7038.3718.1689.8098.255 1.3024.255.4928 0 .9303-.0861 1.3019-.255.3713-.169.6855-.406.934-.7038.2474-.2965.4333-.6521.553-1.0558.1184-.401.1786-.8403.1786-1.3055 0-.4649-.0602-.9045-.1786-1.3055zm9.9779 3.3463c-.0399-.1181-.1551-.0735-.1551-.0735-.1766.0676-.3643.1301-.5651.1614-.2023.0318-.4263.0477-.6659.0477-.5875 0-1.0555-.1749-1.3895-.5207-.3356-.346-.5241-.905-.522-1.6612.0018-.6873.1681-1.2051.4664-1.5999.2957-.3922.7473-.5935 1.3478-.5935.5014 0 .8839.0582 1.2847.1839 0 0 .0952.0414.1408-.084.1067-.2954.1854-.5056.2991-.8302.0323-.0926-.0469-.1317-.0759-.1429-.1575-.0615-.5296-.1624-.8104-.2049-.2626-.0402-.5694-.061-.9118-.061-.5103 0-.9653.0873-1.3543.2604-.3883.1729-.7176.4117-.9786.7087-.261.2975-.4597.6529-.5911 1.0561-.1317.401-.1982.8411-.1982 1.3078 0 1.0078.272 1.8221.8083 2.4187.5382.5987 1.3455.9027 2.3992.9027.6224 0 1.2609-.1259 1.7209-.3069 0 0 .0876-.0422.0495-.1444zm2.1261-2.7159c.0582-.3913.1653-.7165.3325-.9705.2521-.3846.6359-.5965 1.1759-.5965.5403 0 .8962.2122 1.1528.5968.1694.2542.2435.5929.2724.9708zm4.0908-.8596c-.1035-.3896-.3585-.7831-.5262-.963-.2646-.2852-.5238-.485-.7811-.5952-.3725-.1583-.7731-.2397-1.1778-.2392-.5134 0-.9799.0869-1.3582.2642-.3789.1778-.6973.4208-.9468.7228-.2501.3016-.4375.6607-.5572 1.068-.12.4049-.1805.8464-.1805 1.3126 0 .474.0629.916.1865 1.3133.1249.4008.3254.7525.596 1.0454.2704.2938.6185.5243 1.0344.6849.4138.1604.9165.2436 1.493.2417 1.1885-.0039 1.8135-.2688 2.0717-.4114.0456-.0256.0886-.0696.0349-.1966l-.2691-.753c-.0412-.1124-.1549-.0717-.1549-.0717-.2949.11-.7123.3063-1.6886.3042-.6377-.001-1.1102-.1895-1.4072-.4839-.3038-.3012-.4529-.7434-.4782-1.3681l4.1125.0031s.1084-.001.1196-.1069c.0045-.0438.1411-.8448-.1228-1.7712zm-37.033.8596c.0582-.3913.1656-.7165.3325-.9705.2524-.3846.6357-.5965 1.1762-.5965.5403 0 .8962.2122 1.1527.5968.1693.2542.2433.5929.2723.9708zm4.0908-.8596c-.1032-.3896-.3585-.7831-.5259-.963-.2646-.2852-.5236-.485-.7812-.5952-.3725-.1583-.7731-.2396-1.1778-.2392-.5134 0-.9798.0869-1.3582.2642-.3788.1778-.6972.4208-.9473.7228-.2495.3016-.437.6607-.5572 1.068-.1196.4049-.1799.8464-.1799 1.3126 0 .474.0623.916.1867 1.3133.1246.4008.3254.7525.5956 1.0454.2706.2938.6184.5243 1.0343.6849.4141.1604.9163.2436 1.4933.2417 1.1882-.0039 1.8135-.2688 2.0716-.4114.0454-.0256.0887-.0696.0347-.1966l-.2688-.753c-.0415-.1124-.1552-.0717-.1552-.0717-.2946.11-.7121.3063-1.6885.3042-.6376-.001-1.1103-.1895-1.4073-.4839-.3035-.3012-.4529-.7434-.4782-1.3681l4.1127.0031s.1085-.001.1197-.1069c.0044-.0438.1411-.8448-.1231-1.7712zm-12.9814 3.5531c-.1614-.1288-.1838-.1603-.2373-.244-.0816-.126-.1233-.3054-.1233-.5351 0-.3611.12-.6213.3671-.796-.0026.0005.3547-.3082 1.1929-.2973.374.0067.7471.0385 1.1168.0952v1.8695h.0005s-.5228.1124-1.1113.1479c-.8364.0503-1.208-.241-1.2054-.2402zm1.6367-2.8906c-.1669-.0122-.383-.0182-.6422-.0182-.3523 0-.6931.0438-1.013.1298-.3212.0866-.6101.2206-.8586.3982-.2484.1774-.4526.4095-.5969.6784-.1457.2715-.22.5903-.22.9478 0 .3648.0633.6808.1885.939.1224.2559.3068.4773.5363.644.2287.1664.5108.2884.8381.363.323.0738.6891.111 1.0891.111.4224 0 .8425-.0354 1.2495-.104.3467-.0597.6921-.1268 1.0359-.2013.1372-.0315.2884-.073.2884-.073.1017-.0258.0939-.1345.0939-.1345l-.0024-3.7615c0-.825-.22-1.4362-.6537-1.8159-.4315-.3778-1.0669-.5686-1.8891-.5686-.3087 0-.8046.0417-1.1024.1014 0 0-.898.1742-1.2677.4638 0 0-.0814.0501-.037.1635l.2912.7823c.0362.1014.1351.0667.1351.0667s.031-.0122.0675-.0339c.7911-.4302 1.7921-.4174 1.7921-.4174.4443 0 .7867.0899 1.0166.2659.2245.1724.3385.4318.3385.9802v.1739c-.3528-.0511-.6777-.0806-.6777-.0806zm33.1758-2.1191c.006-.0137.0091-.0285.0091-.0435.0001-.015-.0028-.0298-.0086-.0436-.0057-.0138-.0142-.0264-.0249-.0368-.0107-.0105-.0234-.0187-.0374-.0242-.0701-.0266-.4198-.1003-.6894-.117-.517-.0324-.8036.0547-1.0607.1705-.255.115-.5374.3009-.6949.5129l-.0005-.5017c0-.0688-.0488-.1244-.1181-.1244h-1.0545c-.0683 0-.1178.0556-.1178.1244v6.1358c.0001.0331.0132.0649.0366.0883s.0552.0366.0883.0366h1.0808c.033 0 .0647-.0132.0881-.0366.0234-.0235.0365-.0552.0365-.0883v-3.065c0-.4117.0454-.8219.1358-1.0798.0892-.2552.2105-.4586.3607-.6049.1423-.1412.3165-.246.5079-.3056.1794-.0515.3651-.0776.5517-.0777.2151 0 .4519.0553.4519.0553.0793.0089.1233-.0396.1502-.1111.0706-.188.2709-.7514.3092-.8636z"/><path d="m43.2014 17.6127c-.1334-.0403-.2692-.0725-.4065-.0965-.1847-.0308-.3718-.0453-.559-.0432-.744 0-1.3304.2101-1.7421.6252-.4088.412-.687 1.0396-.8265 1.8654l-.0504.2787h-.9337s-.1139-.0047-.1379.1197l-.1533.8553c-.0107.0818.0245.1329.134.1324h.9089l-.9222 5.1479c-.0722.4146-.1549.7556-.2464 1.014-.0902.255-.1784.4462-.2868.5849-.1051.1343-.2047.2331-.3766.2907-.1418.0477-.305.0696-.4839.0696-.0996 0-.2321-.0167-.3298-.0362-.0978-.0193-.1487-.0412-.2219-.072 0 0-.1067-.0407-.1487.0662-.0341.0874-.2763.7536-.305.836-.0292.0813.0117.1455.0633.164.121.0433.211.0709.3758.1098.2289.0539.4219.0573.6025.0573.3786 0 .7236-.0532 1.0096-.1564.2879-.104.5385-.2853.7601-.5306.2396-.2647.3904-.5419.5345-.9199.1427-.3747.2642-.8399.3614-1.382l.9267-5.2433h1.3548s.1143.0042.138-.1197l.1533-.8552c.0107-.0819-.0242-.133-.1343-.1325h-1.3149c.0065-.0297.0662-.4923.2172-.9277.0644-.1859.1856-.3358.2884-.4388.0959-.0981.214-.1716.3444-.2144.1429-.0441.2919-.0656.4415-.0636.1238 0 .2453.0149.3379.0342.1275.0271.177.0414.2104.0513.134.041.152.0013.1783-.0636l.3145-.8636c.0323-.0928-.0464-.1319-.0756-.1434zm-18.3757 8.8958c0 .0689-.049.1249-.1179.1249h-1.0907c-.0691 0-.1181-.056-.1181-.1249v-8.7787c0-.0686.049-.1241.1181-.1241h1.0907c.0689 0 .1179.0555.1179.1241z"/></g></g></svg>