<svg fill="none" height="31" viewBox="0 0 133 31" width="133" xmlns="http://www.w3.org/2000/svg" xmlns:xlink="http://www.w3.org/1999/xlink"><clipPath id="a"><path d="m.091614.802124h132v30h-132z"/></clipPath><g clip-path="url(#a)"><path clip-rule="evenodd" d="m130.311 9.6611h-.349v.4314h.349c.16 0 .266-.0712.266-.2157 0-.14452-.097-.2157-.266-.2157zm-.777-.39474h.783c.433 0 .714.23296.714.59534.002.10098-.024.2005-.073.2885-.05.0879-.123.1611-.21.2119l.307.4444v.0884h-.446l-.298-.4314h-.349v.4314h-.432zm2.192.84554c0-.8628-.582-1.53148-1.474-1.53148-.891 0-1.456.6277-1.456 1.53148 0 .8628.582 1.5337 1.456 1.5337.875 0 1.474-.6622 1.474-1.5337zm.366 0c0 1.0268-.688 1.8809-1.84 1.8809-1.151 0-1.819-.8628-1.819-1.8809s.679-1.87876 1.819-1.87876c1.141 0 1.831.85419 1.831 1.87876zm-102.9818 3.6476-3.5464 2.0448 3.5464 2.0384c.4304.2472.7447.6546.8738 1.1328.129.4781.0622.9878-.1857 1.4168-.2479.4291-.6566.7424-1.1363.871-.4796.1287-.9909.0621-1.4213-.185l-6.3507-3.667c-.4078-.2344-.7109-.6146-.8482-1.0634-.0615-.196-.0893-.4009-.0822-.6061.0032-.146.025-.2909.0649-.4314.131-.4709.4416-.872.8655-1.1174l6.3507-3.654c.4304-.2471.9417-.3137 1.4213-.1851.4797.1287.8884.442 1.1363.871.2479.4291.3147.9388.1857 1.4169-.1291.4782-.4434.8856-.8738 1.1328zm-3.3582 9.9072-6.3485-3.6497c-.3269-.1904-.7047-.2756-1.0819-.2437-.4705.0343-.9106.2449-1.2317.5894s-.4995.7975-.4994 1.2678v7.308c0 .4943.197.9683.5476 1.3178s.8261.5459 1.3219.5459c.4959 0 .9714-.1964 1.322-.5459s.5476-.8235.5476-1.3178v-4.0984l3.5637 2.0622c.2131.1222.4483.2014.6921.233.2439.0316.4915.0151.7289-.0487s.4599-.1736.6547-.3231c.1949-.1495.3582-.3358.4809-.5483.1226-.2124.202-.4469.2337-.6899.0317-.2431.0151-.49-.0489-.7266-.064-.2367-.1741-.4584-.3241-.6527-.1499-.1942-.3368-.3571-.5499-.4793zm-7.3266-7.1484-2.6398 2.6186c-.09.0848-.2074.1345-.3311.1402h-.7746c-.124-.0068-.2418-.0564-.3332-.1402l-2.6377-2.6186c-.0814-.0907-.1294-.2063-.1363-.3279v-.7743c.0061-.123.0542-.2403.1363-.3322l2.6377-2.6338c.0916-.0831.2094-.1319.3332-.138h.7746c.1233.0053.2407.0543.3311.138l2.6398 2.6273c.0822.092.1303.2092.1363.3322v.7744c-.0053.1237-.0535.2419-.1363.3343zm-2.1053-.7291c-.0085-.1235-.0571-.2408-.1385-.3343l-.7703-.7571c-.0904-.0826-.2066-.1313-.3289-.1381h-.0303c-.1224.0068-.2386.0555-.3289.1381l-.7638.7571c-.0825.0926-.1306.2106-.1364.3343v.0281c.0055.1218.0537.2379.1364.3278l.7638.7615c.0906.082.2067.1308.3289.138h.0303c.1223-.0067.2385-.0555.3289-.138l.7659-.7615c.0832-.0902.1335-.2057.1429-.3278zm-11.93769-7.85589 6.35069 3.65399c.2849.1637.6079.2499.9368.25.3288 0 .6518-.0861.9367-.2498.2849-.1636.5217-.399.6866-.6826s.2521-.6054.2529-.93319v-7.30802c0-.49428-.197-.96832-.5476-1.31782-.3506-.349509-.8261-.54586-1.3219-.54586-.4959 0-.9714.196351-1.322.54586-.3506.3495-.54756.82354-.54756 1.31782v4.09836l-3.55727-2.05566c-.21312-.12222-.4483-.20141-.69211-.23304-.24382-.03162-.49149-.01506-.72889.04873-.47944.12884-.8879.44227-1.13552.87133-.24763.42906-.31414.93861-.18489 1.41655.12924.47794.44365.88513.87405 1.13198zm13.93919 3.89779c.3771.0307.7546-.0544 1.0819-.2438l6.3485-3.65399c.2131-.12222.4-.2851.55-.47933.15-.19422.2601-.41599.3241-.65265.064-.23665.0806-.48355.0489-.7266-.0318-.24306-.1112-.4775-.2338-.68995s-.286-.39874-.4808-.54824c-.1949-.14951-.4173-.25929-.6547-.32308-.2374-.0638-.4851-.08036-.7289-.04873-.2438.03162-.479.11081-.6921.23304l-3.5551 2.05565v-4.09836c0-.49428-.197-.96831-.5476-1.31782-.3506-.349507-.8261-.545858-1.322-.545858-.4958 0-.9713.196351-1.3219.545858-.3506.34951-.5476.82354-.5476 1.31782v7.31665c-.0002.47049.1782.92369.4992 1.26859.3211.3449.7612.5559 1.2319.5908zm-6.5044 7.9529c-.3772-.0318-.7551.0534-1.0819.2438l-6.35289 3.6389c-.21311.1222-.39999.2851-.54996.4793-.14997.1943-.2601.416-.32409.6527-.064.2366-.08061.4835-.04888.7266.03172.243.11115.4775.23377.6899.12261.2125.286.3988.48083.5483s.4173.2593.65469.3231c.2374.0638.48507.0803.72889.0487.24381-.0316.47899-.1108.69211-.233l3.55727-2.0449v4.0983c0 .4943.19696.9684.54756 1.3179s.8261.5458 1.322.5458c.4958 0 .9713-.1963 1.3219-.5458s.5476-.8236.5476-1.3179v-7.3252c-.0025-.4681-.1819-.9181-.5023-1.2603-.3204-.3421-.7583-.5514-1.2266-.5862zm-1.731-3.4232c.0622-.1958.0907-.4007.0844-.6061-.0061-.1458-.0286-.2906-.0671-.4314-.12867-.472-.43996-.8739-.86554-1.1173l-6.33342-3.6735c-.4304-.2471-.94166-.3137-1.42131-.185-.47964.1286-.888376.4419-1.136289.871-.2479134.429-.3146951.9387-.185654 1.4168.129041.4782.443335.8856.873743 1.1328l3.54645 2.0449-3.55511 2.0297c-.430403.2483-.744241.6569-.872471 1.1358-.1282291.479-.0603467.9891.188714 1.4181.249061.4291.658897.742 1.139357.8698.48045.1278.99217.0602 1.42257-.1881l6.33775-3.667c.40953-.2324.7145-.6121.85251-1.0612zm78.762-10.92101h-.3094c-.44-.0082-.8784.05444-1.2983.1855-.4114.12893-.7795.36763-1.0646.69025-.2904.33817-.4958.7404-.5993 1.17343-.1212.50283-.1793 1.0187-.1731 1.5358v1.11733h-1.2356c-.2011-.0006-.3945.0775-.5385.2174-.144.14-.2272.3306-.2318.5311-.0047.2125.0728.4188.2164.5759.1469.1496.3443.2395.5539.2524h1.2269v9.1113c.0005.1025.0214.204.0615.2984s.0986.18.1722.2517c.1537.1411.3558.2183.5647.2157.2032-.0029.397-.0856.5393-.2303.1422-.1446.2214-.3394.2202-.542v-9.1048h1.3286c.2082-.0106.405-.0983.5518-.2459.1501-.1508.2342-.3548.2337-.5673v-.0302c-.0057-.2008-.0903-.3914-.2356-.5306s-.3397-.2159-.5412-.2136h-1.3373v-1.113c-.0026-.38015.0425-.75913.1342-1.12813.0442-.19801.1322-.3837.2575-.54357.1048-.10884.236-.18905.3808-.23296.2545-.0725.5187-.10524.7833-.09706h.0411.0606.0714.1753c.1045 0 .2081-.02054.3047-.06043s.1844-.09836.2583-.17207c.074-.07371.1326-.16122.1726-.25752.0401-.09631.0606-.19953.0606-.30377s-.0205-.20746-.0606-.30377c-.04-.09631-.0986-.18381-.1726-.25752-.0739-.07371-.1617-.13218-.2583-.17208-.0966-.03989-.2002-.06042-.3047-.06042zm27.3938 5.89521c.075-.0731.135-.1603.176-.2566.041-.0962.063-.1996.064-.3043-.001-.102-.022-.2028-.064-.296s-.103-.1768-.178-.2454c-.071-.0737-.156-.1324-.25-.1725s-.195-.06077-.298-.06077c-.102 0-.203.02067-.297.06077-.095.0401-.18.0988-.25.1725l-6.109 5.9254v-9.98492c-.001-.10397-.023-.20663-.064-.30214s-.101-.18198-.176-.25449-.163-.12964-.26-.16811-.2-.05754-.305-.05611c-.102.0006-.203.02129-.297.06089-.095.0396-.18.09734-.252.16991-.146.14624-.229.34362-.232.55005v14.61602c.003.2059.086.4026.232.5482.146.1455.343.2283.549.2305.211.0029.414-.0775.564-.2234.151-.146.238-.3457.241-.5553v-2.4115l1.993-1.9823 4.06 4.8813c.068.1029.166.1832.281.2308.106.0394.219.0598.333.0604.184.0034.364-.0551.511-.1661h.011c.08-.0761.143-.1674.187-.2686.044-.1011.067-.21.068-.3202-.002-.1898-.07-.3729-.193-.5177l-4.133-5.0065 4.09-3.9452zm-11.036-1.0052c.075.0728.134.1598.174.2558.04.0959.061.1989.06.3028v9.9008c-.002.206-.084.4031-.23.5488-.147.1456-.344.2282-.551.2299-.207-.0023-.405-.0851-.552-.2308-.073-.0715-.131-.1568-.17-.2508-.04-.0941-.061-.195-.061-.2971v-.9663c-.488.5449-1.084.9817-1.752 1.2823-.667.3006-1.39.4582-2.123.4627-.7321.0045-1.4572-.1443-2.1283-.4367-.671-.2924-1.273-.722-1.7671-1.2609-1.0209-1.0979-1.5882-2.5398-1.5882-4.0369 0-1.497.5673-2.9389 1.5882-4.0368.495-.5361 1.0967-.9636 1.7665-1.2552.6699-.2916 1.3933-.4409 2.1243-.4385.7306.0025 1.4536.1566 2.1216.4527.668.296 1.266.7275 1.758 1.2668v-.9447c0-.1041.021-.2072.061-.3031.041-.096.1-.1829.175-.2556.148-.1386.344-.2157.547-.2157s.399.0771.547.2157zm-1.33 5.5155c.008-1.1034-.404-2.1688-1.154-2.981-.345-.3841-.767-.6914-1.239-.9018-.472-.2103-.984-.3191-1.501-.3191-.5172 0-1.0286.1088-1.5008.3191-.4722.2104-.8946.5177-1.2396.9018-.7512.8115-1.1657 1.8768-1.1598 2.981-.0029 1.0968.4133 2.1534 1.1641 2.9551.3483.3795.772.6825 1.2442.8899.4722.2073.9824.3144 1.4984.3144.5155 0 1.0265-.1071 1.4985-.3144.472-.2074.896-.5104 1.244-.8899.748-.8069 1.16-1.8672 1.153-2.9659zm-62.932-.289c-.6721-.2906-1.3606-.542-2.0621-.7528-.6148-.1747-1.217-.391-1.8024-.6471-.2074-.1009-.3927-.2417-.5453-.4142-.1233-.1433-.1895-.3268-.1861-.5155-.0053-.2575.0704-.5102.2164-.7226.2498-.3226.588-.566.9737-.7011.3525-.1418.7278-.2193 1.1079-.2286.6755-.0115 1.3358.2001 1.8781.6018.2164.1531.3939.3106.5626.4314.081.0676.1696.1255.264.1726.0952.0513.2012.0794.3094.0819.0743.0003.1479-.0144.2164-.0431.0697-.0286.1341-.0687.1904-.1186.0582-.0542.1059-.1185.1407-.1899.0294-.0681.0448-.1415.0454-.2157-.0028-.1371-.04-.2713-.1082-.3904-.139-.2376-.3184-.4492-.5301-.6255-.3906-.3334-.828-.608-1.2983-.8154-.4741-.2254-.9897-.351-1.5146-.3688-1.162 0-2.1314.2631-2.8368.7463-.369.2327-.6822.5435-.9174.9103-.2533.448-.3839.9546-.3787 1.4689v.082c-.0095.5325.1638 1.0523.4912 1.4732.4609.5781 1.1425.9254 1.8111 1.1713s1.3329.3926 1.7548.5328c.5844.17 1.1488.4021 1.6835.6924.2062.1181.3894.2723.5409.4551.124.1701.1921.3743.1947.5846v.0172c.0036.2929-.0882.579-.2618.8154-.2826.3414-.6584.5939-1.0819.7269-.3735.1325-.7656.2053-1.1619.2157-.7567.0165-1.506-.1508-2.1833-.4875-.2467-.1229-.4457-.2437-.6275-.3473-.0887-.0474-.1731-.0927-.2618-.1294-.0891-.0375-.1846-.0573-.2813-.0582-.0674-.0002-.1342.0122-.1969.0366-.064.0256-.1221.0637-.1709.1122-.0692.0614-.1271.1344-.171.2157-.0404.0826-.0611.1734-.0606.2653.0039.1501.0521.2956.1385.4185.1517.2006.3378.373.5496.5091.2765.1797.5658.339.8655.4767.7562.3363 1.5719.5196 2.3997.5392 1.1143 0 2.0794-.2567 2.8908-.8628.3946-.2844.7167-.6573.9404-1.0885.2236-.4312.3425-.9088.3471-1.3942.0101-.4893-.1125-.9722-.3549-1.3978-.3715-.5542-.9004-.9853-1.519-1.2381zm51.1456-10.16397c-.2066.00168-.4041.08463-.5496.2308-.0733.0718-.1315.15741-.1712.25184-.0398.09443-.0603.1958-.0604.29821v14.61602c-.0001.1021.0204.2032.0601.2974.0398.0941.0981.1793.1715.2505.1104.1097.2507.1845.4034.2152.1528.0308.3113.016.4557-.0424s.2684-.1579.3564-.286c.0881-.1282.1365-.2793.139-.4347v-14.61602c-.0014-.10397-.0233-.20663-.0646-.30214-.0412-.09551-.1009-.18198-.1756-.25449-.0748-.07251-.1631-.12964-.26-.16811s-.2004-.05754-.3047-.05611zm36.0034 10.07767v.0776c0 .1018-.022.2023-.064.2949-.042.0927-.104.1752-.181.2422-.15.1294-.342.2-.541.1985h-8.776c.216 2.1354 1.932 3.7101 3.975 3.7273h.517c.688-.0109 1.356-.2265 1.919-.619.585-.3914 1.075-.9071 1.435-1.51.068-.1184.169-.215.29-.2782.112-.0618.238-.0938.366-.0928.14 0 .277.0372.398.1079.109.0768.198.1783.26.296s.095.2483.097.3813c0 .1419-.038.2812-.111.4034-.498.7977-1.162 1.4795-1.947 1.9995-.801.5369-1.742.83-2.707.8434h-.526c-.736-.0062-1.464-.1597-2.14-.4513s-1.287-.7154-1.796-1.2463c-1.038-1.0702-1.62-2.4995-1.625-3.9883-.006-1.5157.579-2.9744 1.632-4.0682.513-.5329 1.129-.9568 1.81-1.2463.682-.2895 1.415-.4386 2.156-.4383 1.422-.002 2.788.5544 3.802 1.5487 1.026 1.014 1.647 2.3659 1.746 3.8029zm-1.714-.7377c-.202-.8674-.69-1.6422-1.386-2.2005-.696-.5584-1.559-.8681-2.452-.8798-.901.0069-1.773.3132-2.478.8705-.706.5572-1.205 1.3335-1.417 2.2055zm-77.0957-4.6096c-1.1765.0021-2.3096.443-3.1765 1.236v-.4552c0-.2027-.0773-.3978-.2164-.5457-.0698-.0737-.154-.1326-.2474-.173-.0933-.0404-.1939-.0615-.2957-.0621-.1032-.0015-.2057.0178-.3014.0565s-.1827.0962-.2557.169-.1307.1594-.1695.2548c-.0389.0954-.0581.1976-.0567.3005v10.1187l.0325.0323c.012.0376.0295.0733.0519.1057.1082.1906.2868.3315.4977.3926h.0325.1687c.1153-.0008.229-.0266.3333-.0755.0928-.0423.1749-.105.2401-.1833 0 0 .0109-.0194.0217-.0281.0394-.0486.0722-.1023.0973-.1596.0199-.0527.0358-.1068.0477-.1618v-.028-6.0936c.0177-.8375.3605-1.6355.9563-2.2261.4397-.4462 1.003-.7513 1.6178-.8761.6147-.1249 1.2529-.0637 1.8326.1755.5796.2392 1.0744.6456 1.4208 1.1671.3464.5214.5286 1.1342.5232 1.7596v5.9663c.0009.1533.047.3029.1324.4303s.2065.227.3482.2865c.1416.0594.2977.0762.4488.0481s.2907-.0998.4013-.2062c.0746-.0727.1337-.1596.1739-.2556.0401-.096.0605-.1991.0598-.3031v-5.9663c-.0046-1.2459-.5034-2.4395-1.3875-3.32-.8842-.8806-2.0819-1.3768-3.3317-1.3802zm15.5533 1.6803c1.0219 1.0949 1.59 2.5349 1.59 4.0304 0 1.4956-.5681 2.9356-1.59 4.0305-.4903.5369-1.0877.9658-1.7539 1.2593s-1.3866.4451-2.115.4451c-.7283 0-1.4487-.1516-2.1149-.4451s-1.2636-.7224-1.7539-1.2593c-1.0262-1.0928-1.5972-2.5336-1.5972-4.0305 0-1.4968.571-2.9376 1.5972-4.0304.4912-.5354 1.0889-.963 1.755-1.2556.6661-.2925 1.386-.4436 2.1138-.4436.7279 0 1.4478.1511 2.1139.4436.6661.2926 1.2638.7202 1.755 1.2556zm.0216 4.0315c.0072-1.1002-.4042-2.1623-1.1511-2.9724-.3437-.3851-.7653-.6934-1.237-.9045-.4718-.2111-.9831-.3203-1.5002-.3203s-1.0284.1092-1.5001.3203c-.4718.2111-.8934.5194-1.2371.9045-.7501.8088-1.1645 1.871-1.1598 2.9724-.0046 1.0969.4101 2.1544 1.1598 2.9573.345.3831.767.6894 1.2386.8992.4716.2097.9822.3181 1.4986.3181s1.027-.1084 1.4986-.3181c.4716-.2098.8936-.5161 1.2386-.8992.7465-.8042 1.1581-1.8616 1.1511-2.9573zm16.8776-5.6449c-.0888-.0383-.1845-.0581-.2813-.0583-.1556.0006-.3077.0462-.4379.1312-.1302.0849-.2328.2057-.2956.3477l-2.986 8.1493-2.3023-5.4638c-.0654-.1462-.1741-.2689-.3116-.3516-.1345-.0831-.2896-.1272-.4479-.1273-.1559.0017-.3082.0476-.4388.1324-.1307.0848-.2345.205-.299.3465l-2.3131 5.4681-3.0034-8.1471c-.0506-.15-.1514-.2779-.2856-.3624-.1291-.0827-.2793-.1269-.4328-.1273-.1009.0001-.2009.0199-.2942.0583-.1817.0843-.3239.2349-.3976.4207-.0736.1857-.0731.3926.0016.578l3.6806 9.8943c.0312.0785.075.1513.1298.2157.0494.0523.1072.096.171.1294.0189.0167.0392.0318.0606.0453.0342.0197.0715.0336.1103.041.0866.0323.178.0498.2705.0517.1476-.0032.2911-.0489.4133-.1315.1259-.0827.2228-.2027.2769-.343h.0108l2.3348-5.5651 2.339 5.5435c.0512.1377.1414.2576.2597.3452.1119.0849.2437.1399.383.1596h.0974c.0894.0006.1783-.0155.2618-.0475.0709-.0278.1378-.0647.199-.11.1244-.0982.2213-.2268.2813-.3732l3.6785-9.8425c.0761-.1878.0749-.3979-.0032-.5848-.0782-.1869-.2271-.3356-.4144-.4139z" fill="#29b5e8" fill-rule="evenodd"/></g></svg>